<?xml version="1.0" encoding="UTF-8" standalone="no"?>
<svg
   width="40"
   height="28"
   fill="currentColor"
   class="bi bi-people-fill"
   viewBox="0 0 16 14"
   version="1.1"
   id="svg1"
   sodipodi:docname="logo.svg"
   inkscape:version="1.4-beta3 (01c8a1c, 2024-08-28, custom)"
   xmlns:inkscape="http://www.inkscape.org/namespaces/inkscape"
   xmlns:sodipodi="http://sodipodi.sourceforge.net/DTD/sodipodi-0.dtd"
   xmlns="http://www.w3.org/2000/svg"
   xmlns:svg="http://www.w3.org/2000/svg">
  <defs
     id="defs1" />
  <sodipodi:namedview
     id="namedview1"
     pagecolor="#ffffff"
     bordercolor="#000000"
     borderopacity="0.25"
     inkscape:showpageshadow="2"
     inkscape:pageopacity="0.0"
     inkscape:pagecheckerboard="0"
     inkscape:deskcolor="#d1d1d1"
     inkscape:zoom="37.15625"
     inkscape:cx="20.010093"
     inkscape:cy="16"
     inkscape:window-width="2560"
     inkscape:window-height="1369"
     inkscape:window-x="-8"
     inkscape:window-y="-8"
     inkscape:window-maximized="1"
     inkscape:current-layer="svg1" />
  <path
     d="m 7,13 c 0,0 -1,0 -1,-1 0,-1 1,-4 5,-4 4,0 5,3 5,4 0,1 -1,1 -1,1 z m 4,-6 a 3,3 0 1 0 0,-6 3,3 0 0 0 0,6 z M 5.216,13 A 2.238,2.238 0 0 1 5,12 C 5,10.645 5.68,9.25 6.936,8.28 A 6.325,6.325 0 0 0 5,8 c -4,0 -5,3 -5,4 0,1 1,1 1,1 z M 4.5,7 a 2.5,2.5 0 1 0 0,-5 2.5,2.5 0 0 0 0,5 z"
     id="path1"
     style="fill:#ffffff" />
</svg>
